# Blender 4.4.3
# www.blender.org
mtllib command_module.mtl
o Cylinder.002
v 0.000000 0.000000 -1.000000
v 0.000000 2.000000 -0.357675
v 0.866025 0.000000 -0.500000
v 0.309756 2.000000 -0.178838
v 0.866025 0.000000 0.500000
v 0.309756 2.000000 0.178838
v 0.000000 0.000000 1.000000
v 0.000000 2.000000 0.357675
v -0.866025 0.000000 0.500000
v -0.309756 2.000000 0.178838
v -0.866025 0.000000 -0.500000
v -0.309756 2.000000 -0.178838
v 0.000000 1.000000 -1.000000
v 0.866025 1.000000 -0.500000
v 0.866025 1.000000 0.500000
v 0.000000 1.000000 1.000000
v -0.866025 1.000000 0.500000
v -0.866025 1.000000 -0.500000
vn 0.4369 0.4861 -0.7568
vn 0.8739 0.4861 -0.0000
vn 0.4369 0.4861 0.7568
vn -0.4369 0.4861 0.7568
vn -0.0000 1.0000 -0.0000
vn -0.8739 0.4861 -0.0000
vn -0.4369 0.4861 -0.7568
vn -0.0000 -1.0000 -0.0000
vn -0.5000 -0.0000 -0.8660
vn -1.0000 -0.0000 -0.0000
vn -0.5000 -0.0000 0.8660
vn 0.5000 -0.0000 0.8660
vn 1.0000 -0.0000 -0.0000
vn 0.5000 -0.0000 -0.8660
vt 0.359375 0.671875
vt 0.359375 0.984375
vt 0.453125 0.984375
vt 0.640625 0.671875
vt 0.625000 0.984375
vt 0.718750 0.671875
vt 0.828125 0.671875
vt 0.921875 0.984375
vt 0.265625 0.984375
vt 0.093750 0.671875
vt 0.812500 0.015625
vt 0.906250 0.171875
vt 0.812500 0.328125
vt 0.625000 0.328125
vt 0.531250 0.171875
vt 0.625000 0.015625
vt 0.468750 0.171875
vt 0.375000 0.015625
vt 0.187500 0.015625
vt 0.093750 0.171875
vt 0.187500 0.328125
vt 0.375000 0.328125
vt 0.625000 0.343750
vt 0.625000 0.640625
vt 0.812500 0.640625
vt 0.812500 0.343750
vt 0.296875 0.343750
vt 0.296875 0.640625
vt 0.093750 0.343750
vt 0.093750 0.640625
s 0
usemtl command_module
f 13/1/1 2/2/1 4/3/1 14/4/1
f 14/5/2 4/6/2 6/7/2 15/8/2
f 15/4/3 6/3/3 8/2/3 16/1/3
f 16/1/4 8/2/4 10/9/4 17/10/4
f 4/11/5 2/12/5 12/13/5 10/14/5 8/15/5 6/16/5
f 17/8/6 10/7/6 12/6/6 18/5/6
f 18/10/7 12/9/7 2/2/7 13/1/7
f 1/17/8 3/18/8 5/19/8 7/20/8 9/21/8 11/22/8
f 11/23/9 18/24/9 13/25/9 1/26/9
f 9/27/10 17/28/10 18/24/10 11/23/10
f 7/29/11 16/30/11 17/28/11 9/27/11
f 5/27/12 15/28/12 16/30/12 7/29/12
f 3/23/13 14/24/13 15/28/13 5/27/13
f 1/26/14 13/25/14 14/24/14 3/23/14
