# Blender 4.4.3
# www.blender.org
mtllib medium_fuel_tank.mtl
o Cylinder.001
v 0.000000 0.000000 -1.000000
v 0.000000 2.000000 -1.000000
v 0.866025 0.000000 -0.500000
v 0.866025 2.000000 -0.500000
v 0.866025 0.000000 0.500000
v 0.866025 2.000000 0.500000
v 0.000000 0.000000 1.000000
v 0.000000 2.000000 1.000000
v -0.866025 0.000000 0.500000
v -0.866025 2.000000 0.500000
v -0.866025 0.000000 -0.500000
v -0.866025 2.000000 -0.500000
vn 0.5000 -0.0000 -0.8660
vn 1.0000 -0.0000 -0.0000
vn 0.5000 -0.0000 0.8660
vn -0.5000 -0.0000 0.8660
vn -0.0000 1.0000 -0.0000
vn -1.0000 -0.0000 -0.0000
vn -0.5000 -0.0000 -0.8660
vn -0.0000 -1.0000 -0.0000
vt 0.828125 0.390625
vt 0.828125 0.968750
vt 0.640625 0.968750
vt 0.640625 0.390625
vt 0.296875 0.968750
vt 0.296875 0.390625
vt 0.109375 0.968750
vt 0.109375 0.390625
vt 0.812500 0.015625
vt 0.906250 0.171875
vt 0.812500 0.328125
vt 0.625000 0.328125
vt 0.531250 0.171875
vt 0.625000 0.015625
vt 0.468750 0.171875
vt 0.375000 0.015625
vt 0.187500 0.015625
vt 0.093750 0.171875
vt 0.187500 0.328125
vt 0.375000 0.328125
s 0
usemtl tank
f 1/1/1 2/2/1 4/3/1 3/4/1
f 3/4/2 4/3/2 6/5/2 5/6/2
f 5/6/3 6/5/3 8/7/3 7/8/3
f 7/8/4 8/7/4 10/5/4 9/6/4
f 4/9/5 2/10/5 12/11/5 10/12/5 8/13/5 6/14/5
f 9/6/6 10/5/6 12/3/6 11/4/6
f 11/4/7 12/3/7 2/2/7 1/1/7
f 1/15/8 3/16/8 5/17/8 7/18/8 9/19/8 11/20/8
